HIERARCHY
ROOT Hips
{
	OFFSET -32.860001 56.121803 44.745396
	CHANNELS 6 Xposition Yposition Zposition Zrotation Xrotation Yrotation
	JOINT Chest
	{
		OFFSET -0.637402 0.831600 5.390099
		CHANNELS 6 Xposition Yposition Zposition Zrotation Xrotation Yrotation
		JOINT Chest2
		{
			OFFSET 0.000000 0.000000 4.429901
			CHANNELS 6 Xposition Yposition Zposition Zrotation Xrotation Yrotation
			JOINT Neck
			{
				OFFSET 0.000000 0.000000 10.301395
				CHANNELS 6 Xposition Yposition Zposition Zrotation Xrotation Yrotation
				JOINT Head
				{
					OFFSET 0.000000 0.000000 2.173897
					CHANNELS 6 Xposition Yposition Zposition Zrotation Xrotation Yrotation
					End Site
					{
						OFFSET 0.000000 0.000000 8.298004
					}
				}
			}
			JOINT LeftCollar
			{
				OFFSET 2.142401 -0.572701 5.717800
				CHANNELS 6 Xposition Yposition Zposition Zrotation Xrotation Yrotation
				JOINT LeftShoulder
				{
					OFFSET 5.674000 0.000000 0.000000
					CHANNELS 6 Xposition Yposition Zposition Zrotation Xrotation Yrotation
					JOINT LeftElbow
					{
						OFFSET 0.000000 0.000000 -12.238701
						CHANNELS 6 Xposition Yposition Zposition Zrotation Xrotation Yrotation
						JOINT LeftWrist
						{
							OFFSET 0.000000 0.000000 -10.253700
							CHANNELS 6 Xposition Yposition Zposition Zrotation Xrotation Yrotation
							End Site
							{
								OFFSET 0.000000 0.000000 -2.173901
							}
						}
					}
				}
			}
			JOINT RightCollar
			{
				OFFSET -2.882599 -1.580101 6.695801
				CHANNELS 6 Xposition Yposition Zposition Zrotation Xrotation Yrotation
				JOINT RightShoulder
				{
					OFFSET -4.235600 0.000000 0.000000
					CHANNELS 6 Xposition Yposition Zposition Zrotation Xrotation Yrotation
					JOINT RightElbow
					{
						OFFSET 0.000000 0.000000 -10.709900
						CHANNELS 6 Xposition Yposition Zposition Zrotation Xrotation Yrotation
						JOINT RightWrist
						{
							OFFSET 0.000000 0.000000 -11.716801
							CHANNELS 6 Xposition Yposition Zposition Zrotation Xrotation Yrotation
							End Site
							{
								OFFSET 0.000000 0.000000 -2.173901
							}
						}
					}
				}
			}
		}
	}
	JOINT LeftHip
	{
		OFFSET 2.279499 0.210400 -2.475502
		CHANNELS 6 Xposition Yposition Zposition Zrotation Xrotation Yrotation
		JOINT LeftKnee
		{
			OFFSET 0.000000 -0.000004 -20.742800
			CHANNELS 6 Xposition Yposition Zposition Zrotation Xrotation Yrotation
			JOINT LeftAnkle
			{
				OFFSET 0.000000 0.000000 -16.666000
				CHANNELS 6 Xposition Yposition Zposition Zrotation Xrotation Yrotation
				End Site
				{
					OFFSET 0.000000 -8.310898 0.000000
				}
			}
		}
	}
	JOINT RightHip
	{
		OFFSET -1.961899 0.232300 -2.727402
		CHANNELS 6 Xposition Yposition Zposition Zrotation Xrotation Yrotation
		JOINT RightKnee
		{
			OFFSET 0.000000 -0.000004 -20.526800
			CHANNELS 6 Xposition Yposition Zposition Zrotation Xrotation Yrotation
			JOINT RightAnkle
			{
				OFFSET 0.000000 0.000000 -16.867300
				CHANNELS 6 Xposition Yposition Zposition Zrotation Xrotation Yrotation
				End Site
				{
					OFFSET 0.000000 -7.186401 0.000000
				}
			}
		}
	}
}
MOTION
Frames: 4
Frame Time: 0.041667
67.272217 54.092094 23.477985 -177.822090 29.558791 4.422338 -0.637401 0.831597 5.390107 3.031519 43.642764 -3.791632 0.000011 0.000009 4.429889 3.124139 -10.731346 -0.623320 -0.000002 -0.000007 10.301394 357.738644 39.385060 -3.669264 -0.000013 0.000000 2.173897 -359.678991 7.432181 2.313849 2.142395 -0.572706 5.717813 -18.225861 14.292492 -3.079786 5.674005 -0.000001 0.000010 159.598790 169.369717 82.717081 0.000006 0.000002 -12.238701 -118.073453 -162.018753 -141.608058 0.000003 0.000008 -10.253702 -119.934597 27.971889 -52.258679 -2.882602 -1.580103 6.695803 -1.010208 7.720190 -11.402769 -4.235605 -0.000011 -0.000006 21.650059 9.505614 108.367945 -0.000006 -0.000001 -10.709898 -28.830621 -28.847178 -29.152323 -0.000001 0.000002 -11.716797 87.357040 18.714414 60.394486 2.279504 0.210394 -2.475502 129.561694 -45.925564 127.541475 0.000003 -0.000004 -20.742809 -141.398508 -20.960206 134.188861 -0.000000 -0.000004 -16.665997 88.524887 1.849621 52.929574 -1.961891 0.232299 -2.727394 -131.383620 -27.771927 -125.285149 0.000003 -0.000002 -20.526814 161.902708 22.784565 -126.570563 0.000009 0.000013 -16.867298 -54.196253 11.105514 -23.065422
67.362411 54.049896 23.503284 -177.163168 29.526993 4.433911 -0.637406 0.831602 5.390100 2.712695 43.679210 -3.447862 -0.000009 -0.000002 4.429899 3.314932 -10.729686 -0.608588 0.000002 -0.000006 10.301409 356.858751 39.473265 -2.832308 -0.000006 -0.000003 2.173899 -359.040177 7.271680 2.052958 2.142398 -0.572704 5.717804 -18.249331 14.279269 -3.175079 5.673994 -0.000001 -0.000002 159.462514 169.586781 82.794371 -0.000001 -0.000006 -12.238696 -119.713354 -161.313004 -142.602971 -0.000005 -0.000003 -10.253700 -119.668958 27.438098 -52.495512 -2.882600 -1.580095 6.695793 -0.992815 7.726245 -11.294111 -4.235623 0.000004 -0.000008 21.810184 9.401422 108.316555 0.000003 -0.000006 -10.709892 -29.099345 -28.626226 -29.219361 -0.000004 0.000003 -11.716806 87.486390 18.659030 60.370785 2.279496 0.210401 -2.475500 129.847429 -46.135206 128.010832 -0.000007 -0.000005 -20.742805 -141.178945 -20.472006 133.912020 -0.000012 0.000005 -16.666002 89.144030 2.297020 53.107702 -1.961896 0.232292 -2.727392 -131.222933 -27.543545 -125.052240 0.000010 -0.000011 -20.526814 162.212540 22.745201 -126.585849 0.000016 0.000001 -16.867300 -54.385815 11.073857 -23.054747
67.451607 54.003300 23.538586 -176.483373 29.547163 4.507147 -0.637408 0.831595 5.390089 2.437309 43.664354 -3.193138 0.000003 -0.000001 4.429892 3.458773 -10.618849 -0.591688 0.000006 -0.000011 10.301388 356.782800 39.326590 -2.735253 -0.000013 0.000000 2.173901 -358.974717 7.221904 2.051305 2.142406 -0.572705 5.717795 -18.308455 14.153973 -3.249339 5.674005 0.000002 0.000006 159.437570 169.978943 82.827068 0.000007 0.000001 -12.238695 -121.127463 -160.919189 -143.442401 0.000000 0.000009 -10.253706 -119.926579 26.899267 -52.736707 -2.882584 -1.580104 6.695783 -0.854821 7.689415 -11.134452 -4.235600 0.000005 -0.000007 21.875238 9.226996 108.185654 0.000004 0.000000 -10.709892 -29.194803 -28.633536 -29.211886 -0.000011 0.000008 -11.716795 87.126241 18.263767 60.302586 2.279495 0.210394 -2.475504 130.164541 -46.340159 128.570579 -0.000008 0.000003 -20.742798 -140.943344 -20.035733 133.618909 0.000001 -0.000004 -16.666008 89.834978 2.771974 53.370497 -1.961903 0.232301 -2.727409 -131.009913 -27.269979 -124.785521 0.000009 -0.000002 -20.526804 162.409017 22.635300 -126.509775 0.000001 0.000013 -16.867300 -54.579150 11.001708 -23.160447
67.541916 53.952599 23.583893 -175.748417 29.614249 4.449869 -0.637401 0.831608 5.390100 2.014265 43.638741 -2.782024 0.000004 0.000002 4.429904 3.580669 -10.599783 -0.583953 0.000004 -0.000007 10.301395 356.820502 39.321488 -2.735781 0.000010 0.000004 2.173898 -358.945839 6.919144 2.116913 2.142396 -0.572696 5.717795 -18.371713 14.065525 -3.229834 5.673998 0.000003 0.000001 159.495996 170.324291 82.810559 -0.000000 -0.000001 -12.238688 -123.506950 -159.721747 -144.284031 0.000009 -0.000004 -10.253702 -118.459686 26.960604 -52.814766 -2.882593 -1.580098 6.695800 -0.856663 7.721887 -10.840937 -4.235606 0.000002 -0.000013 22.146045 8.931639 107.920541 -0.000009 0.000007 -10.709896 -29.127786 -28.618863 -29.229238 -0.000005 0.000005 -11.716801 86.710542 18.219577 60.274917 2.279506 0.210408 -2.475502 130.330856 -46.410282 129.004802 -0.000003 -0.000007 -20.742813 -140.703044 -19.698259 133.309242 0.000002 -0.000005 -16.665997 90.512130 3.267996 53.737620 -1.961891 0.232295 -2.727402 -130.868938 -27.079631 -124.629014 0.000003 -0.000009 -20.526810 162.579252 22.442883 -126.418277 0.000000 -0.000002 -16.867300 -54.760850 10.864317 -23.310626
